<svg width="133" height="24" viewBox="0 0 133 24" fill="none" xmlns="http://www.w3.org/2000/svg">
<path d="M3.54175 24H0.701268C0.215772 24 -0.123063 23.5179 0.0421403 23.061L8.20285 0.466938C8.30399 0.188789 8.56697 0.00335693 8.86198 0.00335693H12.1778C12.4728 0.00335693 12.7375 0.188789 12.837 0.466938L20.9977 23.0627C21.1629 23.5195 20.824 24.0017 20.3386 24.0017H17.4037C17.1053 24.0017 16.8406 23.8129 16.7412 23.5313L15.0116 18.5769C14.9863 18.5028 14.9155 18.4539 14.838 18.4539H6.13781C6.06026 18.4539 5.98946 18.5028 5.96417 18.5769L4.20425 23.5364C4.10479 23.8162 3.84013 24.0034 3.54344 24.0034L3.54175 24ZM9.97794 7.15936L7.30772 14.6609C7.26557 14.7806 7.35323 14.9071 7.48135 14.9071H13.491C13.6192 14.9071 13.7068 14.7806 13.6647 14.6609L10.9978 7.1661C10.9978 7.1661 10.9944 7.15767 10.9944 7.1543C10.9068 6.82895 10.809 6.50192 10.7011 6.17657C10.6893 6.13948 10.6775 6.10408 10.6657 6.06868C10.6118 5.89505 10.3657 5.89842 10.3151 6.07374C10.3067 6.10239 10.2982 6.13105 10.2898 6.1614C10.192 6.50023 10.0875 6.83401 9.97794 7.16273V7.15936Z" fill="#283239"/>
<path d="M26.8203 24H23.8011C23.5111 24 23.2751 23.764 23.2751 23.474V0.525953C23.2751 0.236005 23.5111 0 23.8011 0H26.9922C27.2063 0 27.3985 0.129803 27.4794 0.328721L34.922 18.6815C34.9843 18.8366 35.2052 18.8366 35.2675 18.6815L42.7101 0.328721C42.791 0.129803 42.9832 0 43.1973 0H46.4542C46.7441 0 46.9801 0.236005 46.9801 0.525953V23.474C46.9801 23.764 46.7441 24 46.4542 24H43.435C43.145 24 42.909 23.764 42.909 23.474V13.5753C42.909 12.7544 42.9192 12.0598 42.9411 11.4901C42.963 10.922 42.9849 10.4179 43.0068 9.97963C43.0169 9.76891 42.7253 9.70485 42.6461 9.9004L37.1623 23.6662C37.0831 23.8668 36.8892 23.9966 36.6735 23.9966H33.5127C33.2969 23.9966 33.103 23.8651 33.0238 23.6645L27.5856 9.96614C27.5064 9.76723 27.2114 9.83466 27.2265 10.0471C27.2569 10.4752 27.2805 10.9439 27.2956 11.4547C27.3277 12.5706 27.3445 13.8838 27.3445 15.3943V23.4707C27.3445 23.7606 27.1085 23.9966 26.8186 23.9966L26.8203 24Z" fill="#283239"/>
<path d="M52.7572 24H49.9167C49.4312 24 49.0924 23.5179 49.2576 23.061L57.4183 0.466938C57.5194 0.188789 57.7824 0.00335693 58.0774 0.00335693H61.3933C61.6883 0.00335693 61.9529 0.188789 62.0524 0.466938L70.2131 23.0627C70.3783 23.5195 70.0395 24.0017 69.554 24.0017H66.6191C66.3207 24.0017 66.056 23.8129 65.9566 23.5313L64.227 18.5769C64.2017 18.5028 64.1309 18.4539 64.0534 18.4539H55.3532C55.2757 18.4539 55.2049 18.5028 55.1796 18.5769L53.4197 23.5364C53.3202 23.8162 53.0556 24.0034 52.7589 24.0034L52.7572 24ZM59.1934 7.15936L56.5231 14.6609C56.481 14.7806 56.5687 14.9071 56.6968 14.9071H62.7065C62.8346 14.9071 62.9222 14.7806 62.8801 14.6609L60.2132 7.1661C60.2132 7.1661 60.2099 7.15767 60.2099 7.1543C60.1222 6.82895 60.0244 6.50192 59.9165 6.17657C59.9047 6.14117 59.8929 6.10408 59.8811 6.07036C59.8272 5.89673 59.5794 5.9001 59.5305 6.07542C59.5221 6.10408 59.5137 6.13274 59.5052 6.1614C59.4075 6.50023 59.3029 6.83401 59.1934 7.16273V7.15936Z" fill="#283239"/>
<path d="M74.741 23.4994L68.0014 0.903584C67.8665 0.45349 68.2037 0.00170898 68.674 0.00170898H71.5786C71.8887 0.00170898 72.1601 0.203999 72.2495 0.500691L75.9076 12.6735C76.1048 13.3309 76.2902 14.0255 76.4655 14.7588C76.5836 15.251 76.6999 15.814 76.8179 16.4479C76.855 16.6485 77.1398 16.6502 77.1803 16.4512C77.3118 15.8039 77.4399 15.2409 77.5647 14.7588C77.7501 14.0474 77.9423 13.3528 78.1395 12.6735L81.7993 0.500691C81.8886 0.203999 82.1617 0.00170898 82.4702 0.00170898H86.0524C86.3643 0.00170898 86.6374 0.20737 86.725 0.505748L90.287 12.6735C90.4842 13.3528 90.6747 14.0642 90.8618 14.8076C90.99 15.3218 91.1214 15.9 91.2546 16.5389C91.2951 16.7344 91.5749 16.7344 91.6171 16.5389C91.7671 15.8191 91.9104 15.2038 92.0436 14.693C92.229 13.9816 92.4094 13.3309 92.5847 12.7392L96.3068 0.499005C96.3961 0.203999 96.6692 0.00170898 96.9777 0.00170898H99.7811C100.251 0.00170898 100.589 0.456861 100.452 0.906956L93.5894 23.5044C93.5 23.7994 93.2269 24.0017 92.9185 24.0017H89.8925C89.5807 24.0017 89.3076 23.7961 89.2199 23.4977L84.4206 7.13243C84.3683 6.95542 84.1188 6.95542 84.0666 7.13243L79.1425 23.5044C79.0532 23.8011 78.7801 24.0034 78.4716 24.0034H75.412C75.1018 24.0034 74.8287 23.7994 74.7393 23.5027L74.741 23.4994Z" fill="#283239"/>
<path d="M106.17 24C104.633 24 103.271 23.6477 102.08 22.9413C100.89 22.2367 99.9598 21.2674 99.2855 20.0368C98.6112 18.8045 98.2758 17.3902 98.2758 15.7887C98.2758 14.1872 98.6028 12.7358 99.2552 11.4934C99.9076 10.251 100.823 9.27835 102.003 8.57202C103.181 7.86737 104.53 7.51337 106.045 7.51337C107.561 7.51337 108.982 7.84546 110.12 8.50796C111.256 9.17046 112.136 10.0926 112.756 11.2709C113.377 12.4509 113.689 13.8602 113.689 15.5021V16.4933C113.689 16.5911 113.609 16.6704 113.512 16.6704L100.482 16.7007C100.383 16.7007 100.302 16.6181 100.304 16.5186L100.358 14.4114C100.359 14.3154 100.439 14.2378 100.535 14.2378H109.685C109.784 14.2378 109.867 14.1552 109.864 14.0558C109.827 13.0662 109.486 12.2638 108.84 11.6485C108.156 10.9961 107.236 10.6691 106.077 10.6691C105.172 10.6691 104.409 10.8579 103.788 11.2372C103.166 11.6165 102.699 12.1846 102.382 12.9432C102.067 13.7017 101.909 14.6272 101.909 15.7213C101.909 17.4053 102.271 18.6798 102.998 19.5429C103.724 20.406 104.803 20.8375 106.234 20.8375C107.286 20.8375 108.154 20.6369 108.839 20.2374C109.397 19.912 109.796 19.4738 110.041 18.9225C110.147 18.6831 110.39 18.5314 110.651 18.5314H112.878C113.34 18.5314 113.662 18.9849 113.517 19.4232C113.092 20.7094 112.333 21.7495 111.239 22.5418C109.902 23.5111 108.213 23.9949 106.17 23.9949V24Z" fill="#283239"/>
<path d="M118.876 23.5903H116.59C116.217 23.5903 115.915 23.2886 115.915 22.916V0.770369C115.915 0.397818 116.217 0.0960693 116.59 0.0960693H119.093C119.466 0.0960693 119.767 0.397818 119.767 0.770369V9.66944C119.767 9.8397 119.985 9.91218 120.086 9.77564C120.566 9.12663 121.197 8.6091 121.979 8.22812C122.947 7.75443 124.032 7.51842 125.231 7.51842C126.726 7.51842 128.004 7.87074 129.068 8.57707C130.13 9.2834 130.952 10.2662 131.531 11.5305C132.109 12.7931 132.399 14.2564 132.399 15.9202C132.399 17.584 132.094 18.8989 131.483 20.1194C130.873 21.3399 130.01 22.294 128.894 22.9767C127.778 23.6611 126.473 24.0034 124.978 24.0034C123.82 24.0034 122.773 23.7505 121.836 23.2448C121.064 22.8284 120.452 22.2839 120.002 21.6096C119.911 21.473 119.697 21.5287 119.68 21.6922L119.545 22.9868C119.509 23.3307 119.219 23.592 118.874 23.592L118.876 23.5903ZM119.799 15.728C119.799 16.6552 119.978 17.4812 120.335 18.2078C120.693 18.9343 121.204 19.4923 121.868 19.8817C122.53 20.2711 123.304 20.4667 124.189 20.4667C125.074 20.4667 125.873 20.2661 126.526 19.8665C127.178 19.467 127.674 18.909 128.009 18.1926C128.346 17.4778 128.515 16.6569 128.515 15.7297C128.515 14.8025 128.346 13.9833 128.009 13.2668C127.672 12.5521 127.176 11.9873 126.526 11.5777C125.873 11.1664 125.094 10.9624 124.189 10.9624C123.284 10.9624 122.532 11.1681 121.868 11.5777C121.204 11.9873 120.695 12.547 120.335 13.2517C119.978 13.958 119.799 14.784 119.799 15.7314V15.728Z" fill="#283239"/>
</svg>
