<?xml version="1.0"?>
<svg width="133" height="24" xmlns="http://www.w3.org/2000/svg" xmlns:svg="http://www.w3.org/2000/svg">
 <g class="layer">
  <title>Layer 1</title>
  <path d="m3.54,24l-2.84,0c-0.48,0 -0.82,-0.48 -0.66,-0.94l8.16,-22.59c0.1,-0.28 0.37,-0.47 0.66,-0.47l3.32,0c0.29,0 0.56,0.19 0.66,0.47l8.16,22.59c0.16,0.46 -0.18,0.94 -0.66,0.94l-2.94,0c-0.29,0 -0.56,-0.19 -0.66,-0.47l-1.73,-4.95c-0.02,-0.08 -0.09,-0.13 -0.17,-0.13l-8.7,0c-0.08,0 -0.15,0.05 -0.18,0.13l-1.76,4.96c-0.1,0.28 -0.36,0.46 -0.66,0.46l0,0zm6.44,-16.84l-2.67,7.5c-0.04,0.12 0.04,0.25 0.17,0.25l6.01,0c0.13,0 0.22,-0.13 0.17,-0.25l-2.66,-7.49c0,0 -0.01,-0.01 -0.01,-0.02c-0.08,-0.32 -0.18,-0.65 -0.29,-0.97c-0.01,-0.04 -0.02,-0.08 -0.03,-0.11c-0.06,-0.17 -0.3,-0.17 -0.35,0c-0.01,0.03 -0.02,0.06 -0.03,0.09c-0.1,0.34 -0.2,0.67 -0.31,1l0,0z" fill="#ffffff" id="svg_1" transform="matrix(1 0 0 1 0 0)"/>
  <path d="m26.82,24l-3.02,0c-0.29,0 -0.52,-0.24 -0.52,-0.53l0,-22.94c0,-0.29 0.23,-0.53 0.52,-0.53l3.19,0c0.22,0 0.41,0.13 0.49,0.33l7.44,18.35c0.06,0.16 0.29,0.16 0.35,0l7.44,-18.35c0.08,-0.2 0.27,-0.33 0.49,-0.33l3.25,0c0.29,0 0.53,0.24 0.53,0.53l0,22.94c0,0.29 -0.24,0.53 -0.53,0.53l-3.01,0c-0.29,0 -0.53,-0.24 -0.53,-0.53l0,-9.89c0,-0.83 0.01,-1.52 0.03,-2.09c0.02,-0.57 0.04,-1.07 0.07,-1.51c0.01,-0.21 -0.28,-0.28 -0.36,-0.08l-5.49,13.77c-0.08,0.2 -0.27,0.33 -0.49,0.33l-3.16,0c-0.21,0 -0.41,-0.13 -0.49,-0.34l-5.43,-13.69c-0.08,-0.2 -0.38,-0.14 -0.36,0.08c0.03,0.43 0.05,0.89 0.07,1.4c0.03,1.12 0.04,2.43 0.04,3.94l0,8.08c0,0.29 -0.23,0.53 -0.52,0.53l0,0z" fill="#ffffff" id="svg_2" transform="matrix(1 0 0 1 0 0)"/>
  <path d="m52.76,24l-2.84,0c-0.49,0 -0.83,-0.48 -0.66,-0.94l8.16,-22.59c0.1,-0.28 0.36,-0.47 0.66,-0.47l3.31,0c0.3,0 0.56,0.19 0.66,0.47l8.16,22.59c0.17,0.46 -0.17,0.94 -0.66,0.94l-2.93,0c-0.3,0 -0.56,-0.19 -0.66,-0.47l-1.73,-4.95c-0.03,-0.08 -0.1,-0.13 -0.18,-0.13l-8.7,0c-0.07,0 -0.15,0.05 -0.17,0.13l-1.76,4.96c-0.1,0.28 -0.36,0.46 -0.66,0.46l0,0zm6.43,-16.84l-2.67,7.5c-0.04,0.12 0.05,0.25 0.18,0.25l6.01,0c0.12,0 0.21,-0.13 0.17,-0.25l-2.67,-7.49c0,0 0,-0.01 0,-0.02c-0.09,-0.32 -0.19,-0.65 -0.29,-0.97c-0.02,-0.04 -0.03,-0.08 -0.04,-0.11c-0.05,-0.17 -0.3,-0.17 -0.35,0.01c-0.01,0.02 -0.02,0.05 -0.02,0.08c-0.1,0.34 -0.21,0.67 -0.32,1l0,0z" fill="#ffffff" id="svg_3" transform="matrix(1 0 0 1 0 0)"/>
  <path d="m74.74,23.5l-6.74,-22.6c-0.13,-0.45 0.2,-0.9 0.67,-0.9l2.91,0c0.31,0 0.58,0.2 0.67,0.5l3.66,12.17c0.19,0.66 0.38,1.36 0.56,2.09c0.11,0.49 0.23,1.05 0.35,1.69c0.04,0.2 0.32,0.2 0.36,0c0.13,-0.65 0.26,-1.21 0.38,-1.69c0.19,-0.71 0.38,-1.41 0.58,-2.09l3.66,-12.17c0.09,-0.3 0.36,-0.5 0.67,-0.5l3.58,0c0.31,0 0.59,0.21 0.67,0.51l3.57,12.16c0.19,0.68 0.38,1.39 0.57,2.14c0.13,0.51 0.26,1.09 0.39,1.73c0.05,0.19 0.32,0.19 0.37,0c0.15,-0.72 0.29,-1.34 0.42,-1.85c0.19,-0.71 0.37,-1.36 0.54,-1.95l3.73,-12.24c0.09,-0.3 0.36,-0.5 0.67,-0.5l2.8,0c0.47,0 0.81,0.46 0.67,0.91l-6.86,22.59c-0.09,0.3 -0.36,0.5 -0.67,0.5l-3.03,0c-0.31,0 -0.58,-0.2 -0.67,-0.5l-4.8,-16.37c-0.05,-0.17 -0.3,-0.17 -0.35,0l-4.93,16.37c-0.09,0.3 -0.36,0.5 -0.67,0.5l-3.06,0c-0.31,0 -0.58,-0.2 -0.67,-0.5l0,0z" fill="#ffffff" id="svg_4" transform="matrix(1 0 0 1 0 0)"/>
  <path d="m106.17,24c-1.54,0 -2.9,-0.35 -4.09,-1.06c-1.19,-0.7 -2.12,-1.67 -2.79,-2.9c-0.68,-1.24 -1.01,-2.65 -1.01,-4.25c0,-1.6 0.32,-3.05 0.98,-4.3c0.65,-1.24 1.56,-2.21 2.74,-2.92c1.18,-0.7 2.53,-1.06 4.05,-1.06c1.51,0 2.93,0.34 4.07,1c1.14,0.66 2.02,1.58 2.64,2.76c0.62,1.18 0.93,2.59 0.93,4.23l0,0.99c0,0.1 -0.08,0.18 -0.18,0.18l-13.03,0.03c-0.1,0 -0.18,-0.08 -0.18,-0.18l0.06,-2.11c0,-0.09 0.08,-0.17 0.17,-0.17l9.16,0c0.09,0 0.18,-0.08 0.17,-0.18c-0.03,-0.99 -0.37,-1.8 -1.02,-2.41c-0.68,-0.65 -1.6,-0.98 -2.76,-0.98c-0.91,0 -1.67,0.19 -2.29,0.57c-0.62,0.38 -1.09,0.94 -1.41,1.7c-0.31,0.76 -0.47,1.69 -0.47,2.78c0,1.69 0.36,2.96 1.09,3.82c0.72,0.87 1.8,1.3 3.23,1.3c1.06,0 1.92,-0.2 2.61,-0.6c0.56,-0.33 0.96,-0.77 1.2,-1.32c0.11,-0.24 0.35,-0.39 0.61,-0.39l2.23,0c0.46,0 0.78,0.45 0.64,0.89c-0.43,1.29 -1.19,2.33 -2.28,3.12c-1.34,0.97 -3.03,1.45 -5.07,1.45l0,0.01z" fill="#ffffff" id="svg_5" transform="matrix(1 0 0 1 0 0)"/>
  <path d="m118.88,23.59l-2.29,0c-0.37,0 -0.67,-0.3 -0.67,-0.67l0,-22.15c0,-0.37 0.3,-0.67 0.67,-0.67l2.5,0c0.38,0 0.68,0.3 0.68,0.67l0,8.9c0,0.17 0.21,0.24 0.32,0.11c0.48,-0.65 1.11,-1.17 1.89,-1.55c0.97,-0.48 2.05,-0.71 3.25,-0.71c1.5,0 2.77,0.35 3.84,1.06c1.06,0.7 1.88,1.69 2.46,2.95c0.58,1.26 0.87,2.73 0.87,4.39c0,1.66 -0.31,2.98 -0.92,4.2c-0.61,1.22 -1.47,2.17 -2.59,2.86c-1.11,0.68 -2.42,1.02 -3.91,1.02c-1.16,0 -2.21,-0.25 -3.14,-0.76c-0.78,-0.41 -1.39,-0.96 -1.84,-1.63c-0.09,-0.14 -0.3,-0.08 -0.32,0.08l-0.13,1.3c-0.04,0.34 -0.33,0.6 -0.68,0.6l0.01,0zm0.92,-7.86c0,0.93 0.18,1.75 0.53,2.48c0.36,0.72 0.87,1.28 1.54,1.67c0.66,0.39 1.43,0.59 2.32,0.59c0.88,0 1.68,-0.2 2.34,-0.6c0.65,-0.4 1.14,-0.96 1.48,-1.68c0.34,-0.71 0.5,-1.53 0.5,-2.46c0,-0.93 -0.16,-1.75 -0.5,-2.46c-0.34,-0.72 -0.83,-1.28 -1.48,-1.69c-0.66,-0.41 -1.44,-0.62 -2.34,-0.62c-0.91,0 -1.66,0.21 -2.32,0.62c-0.67,0.41 -1.18,0.97 -1.54,1.67c-0.35,0.71 -0.53,1.53 -0.53,2.48l0,0z" fill="#ffffff" id="svg_6"/>
 </g>
</svg>